<svg xmlns="http://www.w3.org/2000/svg" viewBox="0 0 32 32">
  <rect width="32" height="32" rx="8" fill="#0F172A"/>
  <path d="M 22.9 9.8 C 30.7 16.5, 41.8 20.2, 45.0 27.2" fill="none" stroke="#4f46e5" stroke-width="0.17" opacity="0.34" stroke-linecap="round"/>
  <path d="M -0.6 12.3 C 7.6 16.5, 10.1 42.0, 18.9 43.8" fill="none" stroke="#4f46e5" stroke-width="0.44" opacity="0.59" stroke-linecap="round"/>
  <path d="M 31.0 3.7 C 36.4 11.0, 51.3 15.7, 56.4 21.1" fill="none" stroke="#34d399" stroke-width="0.16" opacity="0.25" stroke-linecap="round"/>
  <path d="M -3.9 38.6 C 8.6 45.2, 16.8 48.8, 25.6 56.4" fill="none" stroke="#0284c7" stroke-width="0.18" opacity="0.57" stroke-linecap="round"/>
  <path d="M -9.3 -2.5 C -8.9 -4.0, 4.6 9.6, 6.4 17.3" fill="none" stroke="#0ea5e9" stroke-width="0.27" opacity="0.59" stroke-linecap="round"/>
  <path d="M 33.2 -7.5 C 36.4 -7.4, 50.4 21.2, 60.5 25.3" fill="none" stroke="#10b981" stroke-width="0.43" opacity="0.50" stroke-linecap="round"/>
  <path d="M 3.0 30.6 C 6.6 29.9, 22.0 63.3, 28.4 62.0" fill="none" stroke="#0284c7" stroke-width="0.21" opacity="0.36" stroke-linecap="round"/>
  <path d="M 18.7 9.7 C 28.0 7.7, 30.1 35.4, 37.0 35.3" fill="none" stroke="#38bdf8" stroke-width="0.25" opacity="0.22" stroke-linecap="round"/>
  <path d="M 11.0 27.8 C 12.6 29.5, 26.8 48.2, 28.3 51.5" fill="none" stroke="#38bdf8" stroke-width="0.16" opacity="0.37" stroke-linecap="round"/>
  <path d="M 33.5 4.6 C 39.8 6.8, 47.4 20.0, 48.6 21.0" fill="none" stroke="#6366f1" stroke-width="0.20" opacity="0.45" stroke-linecap="round"/>
  <path d="M -1.6 21.1 C 6.9 27.6, 7.6 52.7, 19.8 52.0" fill="none" stroke="#38bdf8" stroke-width="0.25" opacity="0.32" stroke-linecap="round"/>
  <path d="M 1.8 1.3 C 10.9 7.0, 18.8 18.1, 28.3 16.7" fill="none" stroke="#34d399" stroke-width="0.24" opacity="0.31" stroke-linecap="round"/>
  <path d="M 15.8 9.4 C 28.1 6.9, 33.6 25.7, 41.4 31.8" fill="none" stroke="#6366f1" stroke-width="0.24" opacity="0.23" stroke-linecap="round"/>
  <path d="M 2.9 19.1 C 10.4 18.2, 13.8 41.6, 18.2 41.7" fill="none" stroke="#0ea5e9" stroke-width="0.31" opacity="0.46" stroke-linecap="round"/>
  <path d="M -3.4 5.8 C 4.1 2.9, 16.0 25.6, 28.5 21.8" fill="none" stroke="#34d399" stroke-width="0.38" opacity="0.56" stroke-linecap="round"/>
  <path d="M 35.8 -4.2 C 46.8 -1.7, 44.7 15.4, 52.4 11.7" fill="none" stroke="#059669" stroke-width="0.43" opacity="0.50" stroke-linecap="round"/>
  <path d="M 2.9 13.4 C 8.7 17.0, 32.1 33.6, 36.0 37.0" fill="none" stroke="#4f46e5" stroke-width="0.31" opacity="0.46" stroke-linecap="round"/>
  <path d="M 20.1 -0.0 C 23.0 1.1, 29.6 17.3, 38.5 15.4" fill="none" stroke="#0284c7" stroke-width="0.22" opacity="0.20" stroke-linecap="round"/>
  <path d="M 3.9 40.0 C 9.8 36.8, 18.6 60.0, 26.0 60.6" fill="none" stroke="#34d399" stroke-width="0.34" opacity="0.53" stroke-linecap="round"/>
  <path d="M 24.1 -6.3 C 34.7 -5.0, 39.4 20.8, 41.9 26.3" fill="none" stroke="#059669" stroke-width="0.41" opacity="0.23" stroke-linecap="round"/>
  <path d="M -4.2 11.0 C 9.7 10.5, 19.2 42.5, 30.6 40.5" fill="none" stroke="#0ea5e9" stroke-width="0.35" opacity="0.35" stroke-linecap="round"/>
  <path d="M -0.1 1.9 C 7.8 9.4, 14.8 27.4, 29.3 24.2" fill="none" stroke="#059669" stroke-width="0.39" opacity="0.38" stroke-linecap="round"/>
  <path d="M 39.3 9.6 C 39.8 8.3, 56.5 26.5, 58.4 31.3" fill="none" stroke="#6366f1" stroke-width="0.40" opacity="0.45" stroke-linecap="round"/>
  <path d="M 11.4 8.8 C 19.8 15.2, 30.9 39.0, 35.2 36.7" fill="none" stroke="#38bdf8" stroke-width="0.39" opacity="0.23" stroke-linecap="round"/>
  <path d="M 12.1 9.9 C 19.9 18.3, 33.7 39.4, 39.7 38.8" fill="none" stroke="#6366f1" stroke-width="0.21" opacity="0.28" stroke-linecap="round"/>
  <path d="M -2.5 3.5 C 6.6 6.4, 13.5 28.1, 16.2 27.8" fill="none" stroke="#0284c7" stroke-width="0.25" opacity="0.24" stroke-linecap="round"/>
  <path d="M 0.9 38.2 C 8.3 37.6, 18.0 55.2, 27.3 55.9" fill="none" stroke="#34d399" stroke-width="0.18" opacity="0.26" stroke-linecap="round"/>
  <path d="M 37.4 -1.1 C 44.6 -1.4, 55.0 20.5, 59.0 18.2" fill="none" stroke="#10b981" stroke-width="0.40" opacity="0.24" stroke-linecap="round"/>
  <path d="M 9.8 17.7 C 12.5 19.9, 25.5 46.8, 25.0 48.3" fill="none" stroke="#10b981" stroke-width="0.28" opacity="0.35" stroke-linecap="round"/>
  <path d="M 15.4 -7.7 C 30.7 -6.0, 36.0 18.0, 47.6 21.3" fill="none" stroke="#34d399" stroke-width="0.43" opacity="0.46" stroke-linecap="round"/>
  <path d="M -9.7 -2.2 C -7.2 -0.7, 13.7 26.2, 17.1 32.2" fill="none" stroke="#0ea5e9" stroke-width="0.26" opacity="0.28" stroke-linecap="round"/>
  <path d="M 10.7 15.7 C 13.1 22.6, 27.9 34.3, 28.2 37.3" fill="none" stroke="#6366f1" stroke-width="0.41" opacity="0.49" stroke-linecap="round"/>
  <path d="M 6.4 -4.9 C 12.6 -2.9, 23.6 18.4, 37.0 25.5" fill="none" stroke="#4f46e5" stroke-width="0.15" opacity="0.38" stroke-linecap="round"/>
  <path d="M -4.4 19.7 C 4.0 20.7, 15.7 35.6, 26.5 35.0" fill="none" stroke="#6366f1" stroke-width="0.30" opacity="0.54" stroke-linecap="round"/>
  <path d="M -9.7 -3.0 C 1.8 5.4, 9.5 27.0, 22.9 29.6" fill="none" stroke="#6366f1" stroke-width="0.43" opacity="0.50" stroke-linecap="round"/>
  <path d="M -7.0 20.1 C -1.3 23.2, 16.9 44.7, 26.8 49.9" fill="none" stroke="#0284c7" stroke-width="0.38" opacity="0.41" stroke-linecap="round"/>
  <path d="M -4.3 3.8 C 6.7 10.3, 12.6 26.0, 26.9 32.6" fill="none" stroke="#10b981" stroke-width="0.25" opacity="0.29" stroke-linecap="round"/>
  <path d="M 8.9 -9.7 C 16.6 -5.3, 25.3 19.0, 32.5 22.6" fill="none" stroke="#6366f1" stroke-width="0.21" opacity="0.34" stroke-linecap="round"/>
  <path d="M 8.2 36.6 C 7.3 36.4, 24.5 63.5, 24.7 61.0" fill="none" stroke="#10b981" stroke-width="0.29" opacity="0.22" stroke-linecap="round"/>
  <path d="M -6.4 9.0 C -2.6 12.1, 8.9 32.7, 14.0 39.5" fill="none" stroke="#059669" stroke-width="0.24" opacity="0.21" stroke-linecap="round"/>
  <path d="M 39.6 12.6 C 45.8 10.0, 49.6 29.4, 58.7 32.5" fill="none" stroke="#34d399" stroke-width="0.38" opacity="0.27" stroke-linecap="round"/>
  <path d="M 9.2 23.6 C 21.2 28.5, 31.1 49.5, 35.8 48.1" fill="none" stroke="#10b981" stroke-width="0.39" opacity="0.42" stroke-linecap="round"/>
  <path d="M -6.4 6.5 C 2.4 6.3, 8.1 19.2, 12.4 23.4" fill="none" stroke="#0284c7" stroke-width="0.42" opacity="0.27" stroke-linecap="round"/>
  <path d="M 35.1 -3.2 C 47.8 3.9, 57.2 25.4, 58.6 25.8" fill="none" stroke="#6366f1" stroke-width="0.34" opacity="0.41" stroke-linecap="round"/>
  <path d="M 4.1 8.1 C 15.8 11.2, 18.2 32.8, 31.0 40.3" fill="none" stroke="#0284c7" stroke-width="0.22" opacity="0.58" stroke-linecap="round"/>
  <path d="M 21.8 12.0 C 27.8 17.6, 40.9 35.0, 47.0 33.1" fill="none" stroke="#34d399" stroke-width="0.21" opacity="0.51" stroke-linecap="round"/>
  <path d="M -3.6 14.0 C -2.3 11.2, 9.0 28.4, 18.9 31.8" fill="none" stroke="#6366f1" stroke-width="0.26" opacity="0.33" stroke-linecap="round"/>
  <path d="M -9.2 3.5 C -5.9 2.7, 10.1 25.6, 16.3 32.8" fill="none" stroke="#10b981" stroke-width="0.33" opacity="0.44" stroke-linecap="round"/>
  <path d="M 37.7 8.0 C 46.3 4.9, 58.7 30.1, 71.3 26.6" fill="none" stroke="#4f46e5" stroke-width="0.42" opacity="0.54" stroke-linecap="round"/>
  <path d="M 0.3 20.5 C 5.6 25.2, 22.7 35.2, 32.0 37.1" fill="none" stroke="#0ea5e9" stroke-width="0.25" opacity="0.24" stroke-linecap="round"/>
  <path d="M -9.6 41.0 C -2.5 37.9, 19.1 54.8, 23.2 61.4" fill="none" stroke="#0284c7" stroke-width="0.25" opacity="0.54" stroke-linecap="round"/>
  <path d="M 12.0 22.2 C 13.6 27.6, 20.9 47.5, 31.3 48.1" fill="none" stroke="#4f46e5" stroke-width="0.28" opacity="0.35" stroke-linecap="round"/>
  <path d="M 31.4 -8.5 C 44.7 -9.8, 48.8 8.7, 62.1 11.2" fill="none" stroke="#34d399" stroke-width="0.24" opacity="0.32" stroke-linecap="round"/>
  <path d="M -2.7 40.1 C -3.3 47.8, 12.2 64.1, 12.4 72.3" fill="none" stroke="#059669" stroke-width="0.23" opacity="0.54" stroke-linecap="round"/>
  <path d="M 32.2 9.2 C 33.8 14.5, 40.1 27.7, 48.8 36.0" fill="none" stroke="#059669" stroke-width="0.23" opacity="0.49" stroke-linecap="round"/>
  <path d="M -4.5 11.0 C 8.1 16.6, 14.9 43.6, 24.4 45.5" fill="none" stroke="#0284c7" stroke-width="0.31" opacity="0.57" stroke-linecap="round"/>
  <path d="M 9.3 6.0 C 16.6 8.9, 18.7 36.7, 31.2 37.6" fill="none" stroke="#10b981" stroke-width="0.40" opacity="0.22" stroke-linecap="round"/>
  <path d="M -2.9 13.9 C -0.8 13.0, 8.0 44.9, 18.5 48.0" fill="none" stroke="#4f46e5" stroke-width="0.29" opacity="0.48" stroke-linecap="round"/>
  <path d="M 21.9 4.9 C 31.8 7.8, 35.9 28.6, 40.0 34.3" fill="none" stroke="#38bdf8" stroke-width="0.23" opacity="0.57" stroke-linecap="round"/>
  <path d="M 33.2 2.2 C 39.7 10.0, 48.5 28.0, 57.8 25.4" fill="none" stroke="#0ea5e9" stroke-width="0.42" opacity="0.49" stroke-linecap="round"/>
  <path d="M 12.7 11.9 C 23.8 20.0, 22.0 34.5, 30.9 40.6" fill="none" stroke="#6366f1" stroke-width="0.39" opacity="0.34" stroke-linecap="round"/>
  <path d="M -7.9 -4.4 C 3.5 -3.9, 7.3 11.2, 13.2 13.6" fill="none" stroke="#6366f1" stroke-width="0.16" opacity="0.31" stroke-linecap="round"/>
  <path d="M -1.9 7.2 C -2.0 8.7, 6.1 32.2, 16.5 36.3" fill="none" stroke="#0284c7" stroke-width="0.26" opacity="0.57" stroke-linecap="round"/>
  <path d="M 8.1 33.2 C 17.1 32.9, 25.7 63.6, 28.2 63.4" fill="none" stroke="#10b981" stroke-width="0.16" opacity="0.45" stroke-linecap="round"/>
  <path d="M -7.8 -5.4 C -3.3 -4.3, 12.8 22.4, 21.6 28.5" fill="none" stroke="#6366f1" stroke-width="0.27" opacity="0.27" stroke-linecap="round"/>
  <path d="M 12.5 29.8 C 19.7 33.4, 33.0 40.2, 46.1 46.5" fill="none" stroke="#10b981" stroke-width="0.41" opacity="0.20" stroke-linecap="round"/>
  <path d="M 0.1 9.5 C 15.6 17.3, 19.3 30.1, 34.1 34.2" fill="none" stroke="#38bdf8" stroke-width="0.22" opacity="0.52" stroke-linecap="round"/>
  <path d="M 15.9 6.9 C 20.6 8.7, 32.9 17.3, 39.0 23.1" fill="none" stroke="#0284c7" stroke-width="0.37" opacity="0.32" stroke-linecap="round"/>
  <path d="M -6.1 26.9 C -1.9 31.4, 6.4 43.4, 13.0 44.2" fill="none" stroke="#10b981" stroke-width="0.25" opacity="0.45" stroke-linecap="round"/>
  <path d="M -0.2 16.9 C 8.7 16.7, 14.3 49.4, 19.3 47.7" fill="none" stroke="#10b981" stroke-width="0.29" opacity="0.29" stroke-linecap="round"/>
  <path d="M 11.2 7.7 C 20.4 10.3, 23.7 25.6, 30.8 32.7" fill="none" stroke="#0284c7" stroke-width="0.37" opacity="0.24" stroke-linecap="round"/>
  <path d="M 9.8 -7.9 C 22.2 -2.8, 27.3 15.5, 42.6 21.3" fill="none" stroke="#059669" stroke-width="0.26" opacity="0.47" stroke-linecap="round"/>
  <path d="M 2.6 17.2 C 6.9 20.7, 28.4 44.8, 31.9 45.6" fill="none" stroke="#10b981" stroke-width="0.17" opacity="0.34" stroke-linecap="round"/>
  <path d="M 0.9 29.8 C 13.4 37.8, 20.2 52.8, 30.6 49.5" fill="none" stroke="#4f46e5" stroke-width="0.37" opacity="0.49" stroke-linecap="round"/>
  <path d="M -6.6 25.1 C -6.0 23.9, 5.6 52.2, 9.2 53.4" fill="none" stroke="#38bdf8" stroke-width="0.45" opacity="0.28" stroke-linecap="round"/>
  <path d="M 7.3 1.7 C 19.1 1.7, 26.1 22.8, 35.6 25.6" fill="none" stroke="#4f46e5" stroke-width="0.34" opacity="0.56" stroke-linecap="round"/>
  <path d="M 27.9 2.0 C 28.7 6.1, 48.1 27.9, 48.2 33.3" fill="none" stroke="#34d399" stroke-width="0.29" opacity="0.35" stroke-linecap="round"/>
  <path d="M 32.4 -1.7 C 39.0 -1.3, 53.9 18.3, 55.6 23.1" fill="none" stroke="#4f46e5" stroke-width="0.36" opacity="0.34" stroke-linecap="round"/>
  <path d="M 9.7 -6.7 C 19.2 -2.1, 20.5 25.4, 30.8 27.0" fill="none" stroke="#38bdf8" stroke-width="0.17" opacity="0.29" stroke-linecap="round"/>
  <path d="M 10.0 10.1 C 11.1 7.7, 27.5 40.6, 30.3 39.3" fill="none" stroke="#38bdf8" stroke-width="0.18" opacity="0.60" stroke-linecap="round"/>
  <path d="M 10.2 -1.0 C 16.6 -1.6, 21.0 18.4, 30.0 23.6" fill="none" stroke="#0ea5e9" stroke-width="0.44" opacity="0.38" stroke-linecap="round"/>
  <path d="M 4.4 1.8 C 5.2 0.7, 17.8 26.0, 26.4 23.1" fill="none" stroke="#10b981" stroke-width="0.45" opacity="0.54" stroke-linecap="round"/>
  <path d="M 4.8 16.2 C 15.3 18.3, 21.1 44.3, 33.3 43.5" fill="none" stroke="#0284c7" stroke-width="0.16" opacity="0.33" stroke-linecap="round"/>
  <path d="M 35.8 0.4 C 41.0 3.1, 52.0 34.0, 67.0 33.1" fill="none" stroke="#0284c7" stroke-width="0.20" opacity="0.51" stroke-linecap="round"/>
  <path d="M 2.6 14.6 C 6.7 16.0, 12.5 29.6, 20.3 35.8" fill="none" stroke="#38bdf8" stroke-width="0.26" opacity="0.26" stroke-linecap="round"/>
  <path d="M 27.2 8.1 C 37.2 6.7, 40.8 25.9, 47.5 29.0" fill="none" stroke="#059669" stroke-width="0.42" opacity="0.31" stroke-linecap="round"/>
  <path d="M 4.1 5.8 C 11.5 7.3, 25.0 27.5, 31.1 33.1" fill="none" stroke="#0ea5e9" stroke-width="0.36" opacity="0.35" stroke-linecap="round"/>
  <path d="M -9.3 18.7 C 5.7 25.9, 6.1 44.8, 20.8 50.5" fill="none" stroke="#059669" stroke-width="0.15" opacity="0.36" stroke-linecap="round"/>
  <path d="M 21.6 -6.0 C 29.6 -8.1, 42.2 27.4, 43.0 27.9" fill="none" stroke="#059669" stroke-width="0.19" opacity="0.36" stroke-linecap="round"/>
  <path d="M 35.5 -6.5 C 45.4 -9.4, 56.5 13.1, 68.0 14.8" fill="none" stroke="#10b981" stroke-width="0.19" opacity="0.22" stroke-linecap="round"/>
  <path d="M 31.5 6.4 C 36.1 3.1, 49.1 27.5, 61.2 30.0" fill="none" stroke="#6366f1" stroke-width="0.25" opacity="0.51" stroke-linecap="round"/>
  <path d="M -1.8 22.7 C 0.7 25.8, 16.7 48.0, 22.4 52.6" fill="none" stroke="#34d399" stroke-width="0.23" opacity="0.24" stroke-linecap="round"/>
  <path d="M -8.2 39.2 C -2.4 41.3, 15.7 50.3, 21.3 56.0" fill="none" stroke="#38bdf8" stroke-width="0.39" opacity="0.26" stroke-linecap="round"/>
  <path d="M 1.9 9.7 C 17.1 6.9, 20.4 22.7, 33.2 27.5" fill="none" stroke="#0ea5e9" stroke-width="0.40" opacity="0.33" stroke-linecap="round"/>
  <path d="M 10.3 33.9 C 17.2 34.7, 23.9 52.9, 25.8 52.4" fill="none" stroke="#38bdf8" stroke-width="0.36" opacity="0.44" stroke-linecap="round"/>
  <path d="M 2.3 32.4 C 6.3 37.0, 20.6 55.6, 29.8 56.9" fill="none" stroke="#34d399" stroke-width="0.17" opacity="0.33" stroke-linecap="round"/>
  <path d="M 21.8 -1.0 C 27.1 5.0, 36.5 23.1, 47.8 31.3" fill="none" stroke="#10b981" stroke-width="0.32" opacity="0.38" stroke-linecap="round"/>
  <path d="M -6.0 5.6 C 9.2 9.7, 22.2 29.8, 26.4 26.8" fill="none" stroke="#6366f1" stroke-width="0.42" opacity="0.29" stroke-linecap="round"/>
  <path d="M 29.8 7.3 C 40.8 3.6, 45.0 20.5, 59.9 27.1" fill="none" stroke="#34d399" stroke-width="0.16" opacity="0.41" stroke-linecap="round"/>
  <path d="M 12.2 24.7 C 19.8 32.5, 37.1 45.0, 40.0 45.5" fill="none" stroke="#0ea5e9" stroke-width="0.17" opacity="0.48" stroke-linecap="round"/>
</svg>
